<svg width="28" height="28" viewBox="0 0 28 28" fill="none" xmlns="http://www.w3.org/2000/svg">
    <g clip-path="url(#clip0_1_4823)">
    <path d="M2.97895 0.0393486C2.69728 0.0826836 2.12853 0.288515 1.81436 0.451015C1.38645 0.678514 0.676862 1.3881 0.449362 1.81601C0.357279 1.99476 0.221862 2.30893 0.151445 2.52018L0.0268619 2.89935V7.47642C0.0268619 12.4327 0.0214452 12.2972 0.324779 12.9797C0.720195 13.8572 1.6302 14.6697 2.4752 14.8918L2.7027 14.9514L2.71895 16.0781C2.7352 17.3293 2.7677 17.4431 3.10353 17.6543C3.3202 17.7897 3.6777 17.806 3.88895 17.6922C3.9702 17.6489 4.60936 17.0368 5.30811 16.3381L6.58103 15.0597H6.8302H7.08478L7.11186 13.7977C7.13353 12.7089 7.14978 12.4868 7.2527 12.1402C7.77811 10.3581 9.09978 9.03642 10.8873 8.49475C11.2881 8.37559 11.326 8.37559 15.1556 8.35392L19.0123 8.33767V5.69976C19.0123 2.80726 19.0014 2.6881 18.6819 2.02185C18.346 1.31768 17.7664 0.738098 17.0352 0.375183C16.2498 -0.0148163 16.5748 0.00143242 9.47895 0.0122662C5.97978 0.0122662 3.05478 0.0285168 2.97895 0.0393486Z" fill="black"/>
    <path d="M11.3315 10.0772C10.1074 10.3967 9.1432 11.3772 8.82362 12.6121C8.72612 12.9967 8.7207 13.2459 8.7207 17.4438C8.7207 20.3309 8.74237 21.9776 8.78029 22.1888C8.80737 22.3621 8.9482 22.7413 9.08362 23.023C9.50612 23.895 10.2645 24.545 11.2395 24.8755L11.6186 25L16.3853 25.0163L21.152 25.0325L22.479 26.3488C23.8928 27.7571 23.9524 27.8005 24.3695 27.7084C24.559 27.6705 24.8299 27.4592 24.9328 27.2805C24.9761 27.2046 25.0086 26.7821 25.0249 26.0346L25.052 24.9025L25.2686 24.8375C25.6315 24.7292 26.1353 24.4475 26.482 24.1605C27.094 23.6513 27.5599 22.8117 27.679 22.0155C27.7115 21.7934 27.7332 19.9138 27.7332 17.3896C27.7332 12.6338 27.7386 12.7096 27.3595 11.9459C26.9965 11.2147 26.417 10.6351 25.7128 10.2992C24.9978 9.95799 25.3065 9.96882 18.1999 9.97424C12.0032 9.97424 11.7107 9.97965 11.3315 10.0772Z" fill="black"/>
    <path d="M18.6364 18.1738C18.5907 18.1831 18.5497 18.2079 18.5202 18.2441C18.4907 18.2802 18.4746 18.3254 18.4746 18.372V18.807C18.4746 18.8874 18.4427 18.9646 18.3858 19.0214C18.3289 19.0783 18.2518 19.1103 18.1713 19.1103C18.0909 19.1103 18.0137 19.0783 17.9568 19.0214C17.8999 18.9646 17.868 18.8874 17.868 18.807V17.933C17.868 17.8562 17.8971 17.7823 17.9495 17.7262C18.0018 17.67 18.0735 17.6358 18.1501 17.6304C18.5096 17.6054 19.0384 17.4828 19.4675 17.2092C19.8863 16.9419 20.1935 16.5449 20.1935 15.9445C20.1935 15.3662 19.9789 14.9652 19.6673 14.6993C19.3482 14.4269 18.9041 14.2776 18.4273 14.259C17.4403 14.2204 16.5204 14.7262 16.344 15.5136C16.3265 15.5921 16.2784 15.6604 16.2105 15.7035C16.1426 15.7466 16.0603 15.761 15.9818 15.7434C15.9033 15.7259 15.8349 15.6778 15.7918 15.6099C15.7487 15.5419 15.7344 15.4597 15.7519 15.3812C15.8866 14.7797 16.2751 14.3395 16.778 14.0514C17.2836 13.7616 17.8965 13.6311 18.4512 13.653C19.0311 13.6756 19.616 13.8578 20.0612 14.2378C20.5142 14.6244 20.8002 15.1971 20.8002 15.9445C20.8002 16.8015 20.3411 17.3714 19.7939 17.7206C19.4234 17.957 19.0051 18.099 18.6364 18.1738ZM17.6658 20.6269C17.6658 20.466 17.7297 20.3117 17.8434 20.198C17.9572 20.0842 18.1115 20.0203 18.2724 20.0203C18.4333 20.0203 18.5876 20.0842 18.7014 20.198C18.8152 20.3117 18.8791 20.466 18.8791 20.6269C18.8791 20.7878 18.8152 20.9421 18.7014 21.0559C18.5876 21.1697 18.4333 21.2336 18.2724 21.2336C18.1115 21.2336 17.9572 21.1697 17.8434 21.0559C17.7297 20.9421 17.6658 20.7878 17.6658 20.6269Z" fill="#F8F8F8" stroke="#F8F8F8" stroke-width="0.404439" stroke-linecap="round" stroke-linejoin="round"/>
    </g>
    <defs>
    <clipPath id="clip0_1_4823">
    <rect width="27.7333" height="27.7333" fill="white"/>
    </clipPath>
    </defs>
    </svg>
    