<svg width="24" height="31" viewBox="0 0 24 31" fill="none" xmlns="http://www.w3.org/2000/svg">
    <path d="M18.6179 11.1949H4.86622C4.69321 11.1949 4.52728 11.1042 4.40494 10.9427C4.2826 10.7812 4.21387 10.5621 4.21387 10.3338C4.21387 10.1054 4.2826 9.88636 4.40494 9.72487C4.52728 9.56338 4.69321 9.47266 4.86622 9.47266H18.6179C18.7909 9.47266 18.9569 9.56338 19.0792 9.72487C19.2015 9.88636 19.2703 10.1054 19.2703 10.3338C19.2703 10.5621 19.2015 10.7812 19.0792 10.9427C18.9569 11.1042 18.7909 11.1949 18.6179 11.1949Z" fill="#2A2A2A"/>
    <path d="M13.81 16.3609H4.86622C4.69321 16.3609 4.52728 16.2702 4.40494 16.1087C4.2826 15.9472 4.21387 15.7282 4.21387 15.4998C4.21387 15.2714 4.2826 15.0524 4.40494 14.8909C4.52728 14.7294 4.69321 14.6387 4.86622 14.6387H13.81C13.9831 14.6387 14.149 14.7294 14.2713 14.8909C14.3937 15.0524 14.4624 15.2714 14.4624 15.4998C14.4624 15.7282 14.3937 15.9472 14.2713 16.1087C14.149 16.2702 13.9831 16.3609 13.81 16.3609Z" fill="#2A2A2A"/>
    <path d="M8.96303 21.5279H4.86622C4.69321 21.5279 4.52728 21.4372 4.40494 21.2757C4.2826 21.1142 4.21387 20.8952 4.21387 20.6668C4.21387 20.4384 4.2826 20.2194 4.40494 20.0579C4.52728 19.8964 4.69321 19.8057 4.86622 19.8057H8.96303C9.13604 19.8057 9.30197 19.8964 9.42431 20.0579C9.54665 20.2194 9.61538 20.4384 9.61538 20.6668C9.61538 20.8952 9.54665 21.1142 9.42431 21.2757C9.30197 21.4372 9.13604 21.5279 8.96303 21.5279Z" fill="#2A2A2A"/>
    </svg>
    